<svg width="121" height="61" viewBox="0 0 121 61" fill="none" xmlns="http://www.w3.org/2000/svg">
<path d="M11.584 12.8848H22.6758V26.7363C19.6641 27.7676 16.3535 28.2832 12.7441 28.2832C8.7832 28.2832 5.71875 27.1348 3.55078 24.8379C1.39453 22.541 0.316406 19.2656 0.316406 15.0117C0.316406 10.8633 1.5 7.63477 3.86719 5.32617C6.23438 3.01758 9.55078 1.86328 13.8164 1.86328C15.4336 1.86328 16.957 2.01562 18.3867 2.32031C19.8281 2.625 21.082 3.01172 22.1484 3.48047L19.9512 8.92969C18.0996 8.01562 16.0664 7.55859 13.8516 7.55859C11.8242 7.55859 10.2539 8.2207 9.14062 9.54492C8.03906 10.8574 7.48828 12.7383 7.48828 15.1875C7.48828 17.5898 7.98633 19.4238 8.98242 20.6895C9.99023 21.9434 11.4375 22.5703 13.3242 22.5703C14.3555 22.5703 15.3047 22.4707 16.1719 22.2715V18.2461H11.584V12.8848Z" fill="#A0A0A0"/>
<path d="M40.043 27.9316V17.0684C40.043 14.3965 39.252 13.0605 37.6699 13.0605C36.5449 13.0605 35.7129 13.5352 35.1738 14.4844C34.6465 15.4219 34.3828 16.9863 34.3828 19.1777V27.9316H27.5098V0.580078H34.3828V4.46484C34.3828 6.22266 34.2891 8.22656 34.1016 10.4766H34.418C35.0742 9.44531 35.8535 8.71875 36.7559 8.29688C37.6582 7.875 38.707 7.66406 39.9023 7.66406C42.1289 7.66406 43.8574 8.30859 45.0879 9.59766C46.3301 10.875 46.9512 12.668 46.9512 14.9766V27.9316H40.043Z" fill="#A0A0A0"/>
<path d="M65.8125 27.9316L64.9512 25.4531H64.5469C63.9727 26.3672 63.1699 27.0703 62.1387 27.5625C61.1191 28.043 59.918 28.2832 58.5352 28.2832C56.3438 28.2832 54.6387 27.6504 53.4199 26.3848C52.2012 25.1074 51.5918 23.3086 51.5918 20.9883V8.01562H58.4648V18.8965C58.4648 20.1973 58.6465 21.1816 59.0098 21.8496C59.3848 22.5176 59.9941 22.8516 60.8379 22.8516C62.0215 22.8516 62.8652 22.3887 63.3691 21.4629C63.873 20.5254 64.125 18.9492 64.125 16.7344V8.01562H70.998V27.9316H65.8125Z" fill="#A0A0A0"/>
<path d="M82.6172 27.9316H75.7441V0.580078H82.6172V27.9316Z" fill="#A0A0A0"/>
<path d="M94.2891 27.9316H87.416V8.01562H94.2891V27.9316ZM87.2402 3.05859C87.2402 2.02734 87.5273 1.25977 88.1016 0.755859C88.6758 0.251953 89.6016 0 90.8789 0C92.1562 0 93.0879 0.257812 93.6738 0.773438C94.2598 1.28906 94.5527 2.05078 94.5527 3.05859C94.5527 5.07422 93.3281 6.08203 90.8789 6.08203C88.4531 6.08203 87.2402 5.07422 87.2402 3.05859Z" fill="#A0A0A0"/>
<path d="M105.75 16.7344C106.582 15.4102 107.291 14.3789 107.877 13.6406L112.342 8.01562H120.006L113.098 16.4883L120.445 27.9316H112.588L108.229 20.7949L105.996 22.5V27.9316H99.0879V0.580078H105.996V11.3379C105.996 13.1777 105.867 14.9766 105.609 16.7344H105.75Z" fill="#A0A0A0"/>
<path d="M0 57.0137C0 55.9355 0.316406 55.1035 0.949219 54.5176C1.59375 53.9316 2.52539 53.6387 3.74414 53.6387C4.9043 53.6387 5.79492 53.9316 6.41602 54.5176C7.03711 55.1035 7.34766 55.9355 7.34766 57.0137C7.34766 58.0684 7.02539 58.8945 6.38086 59.4922C5.74805 60.0781 4.86914 60.3711 3.74414 60.3711C2.58398 60.3711 1.66992 60.0781 1.00195 59.4922C0.333984 58.9062 0 58.0801 0 57.0137Z" fill="#A0A0A0"/>
<path d="M20.3379 60.2832C17.0801 60.2832 14.6074 59.4043 12.9199 57.6465C11.2441 55.8887 10.4062 53.3633 10.4062 50.0703C10.4062 46.7656 11.3145 44.2051 13.1309 42.3887C14.9473 40.5723 17.5312 39.6641 20.8828 39.6641C23.1914 39.6641 25.3652 40.168 27.4043 41.1758L25.3828 46.2559C24.5508 45.8926 23.7832 45.6055 23.0801 45.3945C22.377 45.1719 21.6445 45.0605 20.8828 45.0605C19.7695 45.0605 18.9082 45.4941 18.2988 46.3613C17.6895 47.2285 17.3848 48.4531 17.3848 50.0352C17.3848 53.2227 18.5625 54.8164 20.918 54.8164C22.9336 54.8164 24.8672 54.2305 26.7188 53.0586V58.5254C24.9492 59.6973 22.8223 60.2832 20.3379 60.2832Z" fill="#A0A0A0"/>
<path d="M49.6934 49.9297C49.6934 53.1875 48.8145 55.7305 47.0566 57.5586C45.3105 59.375 42.8613 60.2832 39.709 60.2832C36.6855 60.2832 34.2773 59.3516 32.4844 57.4883C30.7031 55.625 29.8125 53.1055 29.8125 49.9297C29.8125 46.6836 30.6855 44.1641 32.4316 42.3711C34.1895 40.5664 36.6504 39.6641 39.8145 39.6641C41.7715 39.6641 43.5 40.0801 45 40.9121C46.5 41.7441 47.6543 42.9395 48.4629 44.498C49.2832 46.0449 49.6934 47.8555 49.6934 49.9297ZM36.791 49.9297C36.791 51.6406 37.0195 52.9473 37.4766 53.8496C37.9336 54.7402 38.7012 55.1855 39.7793 55.1855C40.8457 55.1855 41.5957 54.7402 42.0293 53.8496C42.4746 52.9473 42.6973 51.6406 42.6973 49.9297C42.6973 48.2305 42.4746 46.9473 42.0293 46.0801C41.584 45.2129 40.8223 44.7793 39.7441 44.7793C38.6895 44.7793 37.9336 45.2129 37.4766 46.0801C37.0195 46.9355 36.791 48.2188 36.791 49.9297Z" fill="#A0A0A0"/>
</svg>

