<svg width="85" height="60" viewBox="0 0 85 60" fill="none" xmlns="http://www.w3.org/2000/svg">
<path d="M7.24414 27.9492V18.7383C5.4043 18.4336 3.82227 17.6309 2.49805 16.3301C0.916016 14.7715 0.125 12.6914 0.125 10.0898V1.58203L3.46484 0H3.64062V10.0898C3.64062 11.6602 4.0625 12.9316 4.90625 13.9043C5.94922 15.1113 7.31445 15.7148 9.00195 15.7148C10.7832 15.7148 12.1484 15.1113 13.0977 13.9043C13.9414 12.8262 14.3633 11.5547 14.3633 10.0898V1.58203L17.7031 0H17.8789V10.0898C17.8789 12.6211 17.0879 14.7012 15.5059 16.3301C14.2285 17.6426 12.6465 18.4453 10.7598 18.7383V26.3672L7.41992 27.9492H7.24414Z" fill="#A0A0A0"/>
<path d="M21.7461 20.5664V14.5898C21.7461 12.6562 22.4727 10.9746 23.9258 9.54492C25.2852 8.2207 26.9902 7.55859 29.041 7.55859C31.0684 7.55859 32.7734 8.2207 34.1562 9.54492C35.6094 10.9512 36.3359 12.6328 36.3359 14.5898V20.5664C36.3359 22.5 35.6094 24.1816 34.1562 25.6113C32.7969 26.9355 31.0918 27.5977 29.041 27.5977C27.0137 27.5977 25.3086 26.9355 23.9258 25.6113C22.4727 24.2051 21.7461 22.5234 21.7461 20.5664ZM25.2617 20.5664C25.2617 21.9141 25.625 22.9043 26.3516 23.5371C27.0898 24.1582 27.9863 24.4688 29.041 24.4688C30.0957 24.4688 30.9863 24.1582 31.7129 23.5371C32.4512 22.9043 32.8203 21.9141 32.8203 20.5664V14.5898C32.8203 13.2422 32.4512 12.2578 31.7129 11.6367C30.9863 11.0039 30.0957 10.6875 29.041 10.6875C27.9863 10.6875 27.0898 11.0039 26.3516 11.6367C25.625 12.2578 25.2617 13.2422 25.2617 14.5898V20.5664Z" fill="#A0A0A0"/>
<path d="M56.1992 19.459V20.5664C56.1992 22.5 55.4727 24.1816 54.0195 25.6113C52.6602 26.9355 50.9551 27.5977 48.9043 27.5977C46.877 27.5977 45.1719 26.9355 43.7891 25.6113C42.3359 24.2051 41.6094 22.5234 41.6094 20.5664V14.5898C41.6094 12.6445 42.3359 10.9629 43.7891 9.54492C45.1484 8.2207 46.8535 7.55859 48.9043 7.55859C50.9082 7.55859 52.6133 8.2207 54.0195 9.54492C55.4727 10.916 56.1992 12.4277 56.1992 14.0801V14.1152L52.8594 15.6973H52.6836V14.5898C52.6836 13.2422 52.3145 12.2578 51.5762 11.6367C50.8496 11.0039 49.959 10.6875 48.9043 10.6875C47.8496 10.6875 46.9531 11.0039 46.2148 11.6367C45.4883 12.2578 45.125 13.2422 45.125 14.5898V20.5664C45.125 21.9141 45.4883 22.9043 46.2148 23.5371C46.9531 24.1582 47.8496 24.4688 48.9043 24.4688C49.959 24.4688 50.8496 24.1523 51.5762 23.5195C52.3145 22.8867 52.6836 22.0605 52.6836 21.041L56.0234 19.459H56.1992Z" fill="#A0A0A0"/>
<path d="M62.6152 4.02539C62.2051 3.60352 62 3.09961 62 2.51367C62 1.91602 62.2051 1.40625 62.6152 0.984375C63.0254 0.5625 63.5234 0.351562 64.1094 0.351562C64.6953 0.351562 65.1934 0.5625 65.6035 0.984375C66.0137 1.40625 66.2188 1.91602 66.2188 2.51367C66.2188 3.09961 66.0137 3.60352 65.6035 4.02539C65.1934 4.44727 64.6953 4.6582 64.1094 4.6582C63.5234 4.6582 63.0254 4.44727 62.6152 4.02539ZM62.3516 27.9492V8.78906L65.6914 7.20703H65.8672V26.3672L62.5273 27.9492H62.3516Z" fill="#A0A0A0"/>
<path d="M18.0371 50.9492C18.0371 53.3398 17.252 55.373 15.6816 57.0488C14.0762 58.748 11.9082 59.5977 9.17773 59.5977C6.44727 59.5977 4.2793 58.748 2.67383 57.0488C1.0918 55.373 0.300781 53.4102 0.300781 51.1602L3.64062 49.5781H3.81641V51.0195C3.81641 52.4492 4.23828 53.6504 5.08203 54.623C6.125 55.8301 7.49023 56.4336 9.17773 56.4336C10.8535 56.4336 12.2188 55.8301 13.2734 54.623C14.1055 53.6738 14.5215 52.4609 14.5215 50.9844C14.5215 49.5898 14.1816 48.4941 13.502 47.6973C12.5645 46.5957 11.123 46.0449 9.17773 46.0449C7.04492 46.0449 5.19922 45.3418 3.64062 43.9355C2.46875 42.8809 1.88281 41.3516 1.88281 39.3477C1.88281 36.9922 2.60938 35.2227 4.0625 34.0391C5.44531 32.9141 7.15039 32.3516 9.17773 32.3516C11.2051 32.3516 12.9102 32.9141 14.293 34.0391C15.7461 35.2227 16.4727 36.8457 16.4727 38.9082L13.1328 40.4902H12.957V39.084C12.957 37.748 12.5762 36.752 11.8145 36.0957C11.0762 35.4512 10.1973 35.1289 9.17773 35.1289C8.04102 35.1289 7.12695 35.4863 6.43555 36.2012C5.74414 36.916 5.39844 37.877 5.39844 39.084C5.39844 40.2441 5.66211 41.1172 6.18945 41.7031C6.89258 42.4883 7.88867 42.8809 9.17773 42.8809C12.0137 42.8809 14.1816 43.5488 15.6816 44.8848C17.252 46.2793 18.0371 48.3008 18.0371 50.9492Z" fill="#A0A0A0"/>
<path d="M25.8242 59.9492V43.1094H21.3066V42.9336L22.7305 39.9102H25.8242V33.582L29.1641 32H29.3398V39.9102H33.8574V40.0859L32.4336 43.1094H29.3398V58.3672L26 59.9492H25.8242Z" fill="#A0A0A0"/>
<path d="M36.9336 52.5664V46.5898C36.9336 44.6562 37.6602 42.9746 39.1133 41.5449C40.4727 40.2207 42.1777 39.5586 44.2285 39.5586C46.2559 39.5586 47.9609 40.2207 49.3438 41.5449C50.7969 42.9512 51.5234 44.6328 51.5234 46.5898V52.5664C51.5234 54.5 50.7969 56.1816 49.3438 57.6113C47.9844 58.9355 46.2793 59.5977 44.2285 59.5977C42.2012 59.5977 40.4961 58.9355 39.1133 57.6113C37.6602 56.2051 36.9336 54.5234 36.9336 52.5664ZM40.4492 52.5664C40.4492 53.9141 40.8125 54.9043 41.5391 55.5371C42.2773 56.1582 43.1738 56.4688 44.2285 56.4688C45.2832 56.4688 46.1738 56.1582 46.9004 55.5371C47.6387 54.9043 48.0078 53.9141 48.0078 52.5664V46.5898C48.0078 45.2422 47.6387 44.2578 46.9004 43.6367C46.1738 43.0039 45.2832 42.6875 44.2285 42.6875C43.1738 42.6875 42.2773 43.0039 41.5391 43.6367C40.8125 44.2578 40.4492 45.2422 40.4492 46.5898V52.5664Z" fill="#A0A0A0"/>
<path d="M56.7969 59.9492V46.5898C56.7969 44.6562 57.5234 42.9746 58.9766 41.5449C60.3359 40.2207 62.041 39.5586 64.0918 39.5586H66.4648V39.7344L65.0586 42.6875H64.0918C63.0371 42.6875 62.1406 43.0039 61.4023 43.6367C60.6758 44.2578 60.3125 45.2422 60.3125 46.5898C60.3125 46.5898 60.3125 50.5156 60.3125 58.3672L56.9727 59.9492H56.7969Z" fill="#A0A0A0"/>
<path d="M84.043 51.459V52.5664C84.043 54.5 83.3164 56.1816 81.8633 57.6113C80.5039 58.9355 78.7988 59.5977 76.748 59.5977C74.7207 59.5977 73.0156 58.9355 71.6328 57.6113C70.1797 56.2051 69.4531 54.5234 69.4531 52.5664V46.5898C69.4531 44.6562 70.1797 42.9746 71.6328 41.5449C72.9922 40.2207 74.6973 39.5586 76.748 39.5586C78.7402 39.5586 80.4453 40.2207 81.8633 41.5449C83.3164 42.9043 84.043 44.416 84.043 46.0801V46.1152L73.3203 54.5176C73.4961 54.916 73.7422 55.25 74.0586 55.5195C74.7969 56.1523 75.6934 56.4688 76.748 56.4688C77.8027 56.4688 78.6934 56.1523 79.4199 55.5195C80.1582 54.8867 80.5273 54.0605 80.5273 53.041L83.8672 51.459H84.043ZM72.9688 50.9668L80.3164 45.0078C80.1289 44.4336 79.8359 43.9766 79.4375 43.6367C78.6992 43.0039 77.8027 42.6875 76.748 42.6875C75.6934 42.6875 74.7969 43.0039 74.0586 43.6367C73.332 44.2578 72.9688 45.2422 72.9688 46.5898V50.9668Z" fill="#A0A0A0"/>
</svg>