<svg width="103" height="61" viewBox="0 0 103 61" fill="none" xmlns="http://www.w3.org/2000/svg">
<path d="M2.26562 2.23242H10.6855C17.6699 2.23242 21.1621 4.76367 21.1621 9.82617C21.1621 12.8027 19.7031 15.1055 16.7852 16.7344L24.291 27.9316H16.416L10.9668 18.5801H9.20898V27.9316H2.26562V2.23242ZM9.20898 7.48828V13.3594H10.5098C12.9355 13.3594 14.1484 12.2871 14.1484 10.1426C14.1484 8.37305 12.959 7.48828 10.5801 7.48828H9.20898Z" fill="#A0A0A0"/>
<path d="M26.084 3.05859C26.084 2.01562 26.3711 1.24805 26.9453 0.755859C27.5312 0.251953 28.4512 0 29.7051 0C30.9707 0 31.9023 0.257812 32.5 0.773438C33.0977 1.27734 33.3965 2.03906 33.3965 3.05859C33.3965 5.07422 32.1777 6.08203 29.7402 6.08203C27.3027 6.08203 26.084 5.07422 26.084 3.05859ZM33.1328 27.9316H26.2598V8.01562H33.1328V27.9316Z" fill="#A0A0A0"/>
<path d="M56.3359 27.9316H51.1504L49.6738 25.418H49.4102C48.2383 27.3281 46.4746 28.2832 44.1191 28.2832C44.0605 28.2832 43.9961 28.2832 43.9258 28.2832C41.8984 28.2832 40.2461 27.3574 38.9688 25.5059C37.6914 23.6543 37.0527 21.1289 37.0527 17.9297C37.0645 14.7305 37.7207 12.2285 39.0215 10.4238C40.3223 8.58398 42.1094 7.66406 44.3828 7.66406C45.5195 7.66406 46.5039 7.89258 47.3359 8.34961C48.168 8.80664 48.9238 9.55664 49.6035 10.5996H49.7441C49.5215 9.05273 49.4102 7.48828 49.4102 5.90625V0.580078H56.3359V27.9316ZM49.9902 18.0703C49.9902 16.3359 49.7383 15.0938 49.2344 14.3438C48.7422 13.582 47.9512 13.2012 46.8613 13.2012C45.959 13.2012 45.2559 13.6289 44.752 14.4844C44.2598 15.3281 44.0137 16.5293 44.0137 18.0879C44.0137 19.6465 44.2656 20.8301 44.7695 21.6387C45.2734 22.4473 46.0293 22.8516 47.0371 22.8516C48.0449 22.8516 48.7773 22.5176 49.2344 21.8496C49.7031 21.1699 49.9551 20.0918 49.9902 18.6152V18.0703Z" fill="#A0A0A0"/>
<path d="M70.7148 28.2832C67.4102 28.2832 64.832 27.4043 62.9805 25.6465C61.1523 23.8652 60.2383 21.3223 60.2383 18.0176C60.2383 14.7012 61.0879 12.1582 62.7871 10.3887C64.4863 8.57227 66.8711 7.66406 69.9414 7.66406C73.0117 7.66406 75.3672 8.44922 77.0078 10.0195C78.6484 11.5898 79.4688 13.8398 79.4688 16.7695V19.8281H67.1816C67.2285 20.9414 67.6328 21.8145 68.3945 22.4473C69.168 23.0801 70.1934 23.3965 71.4707 23.3965C72.7598 23.3965 73.8965 23.2852 74.8809 23.0625C75.8652 22.8398 76.9609 22.4473 78.168 21.8848V26.8242C77.043 27.3984 75.918 27.7852 74.793 27.9844C73.668 28.1836 72.3086 28.2832 70.7148 28.2832ZM73.2285 15.5039C73.2051 14.543 72.9297 13.7754 72.4023 13.2012C71.8867 12.627 71.1953 12.3398 70.3281 12.3398C69.4727 12.3398 68.7812 12.6035 68.2539 13.1309C67.7266 13.6582 67.416 14.4492 67.3223 15.5039H73.2285Z" fill="#A0A0A0"/>
<path d="M30.0215 59.9316H21.8125L19.3516 48.7344C19.2695 48.4297 19.0996 47.5918 18.8418 46.2207C18.5957 44.8379 18.3965 43.584 18.2441 42.459C18.0449 44.0762 17.5527 46.6426 16.7676 50.1582C16.334 52.1035 15.6133 55.3613 14.6055 59.9316H6.39648L0.0332031 34.2324H6.73047L9.52539 47.1172C10.1699 50.0352 10.6035 52.3027 10.8262 53.9199C10.9902 52.6426 11.2656 51.0137 11.6523 49.0332C12.0391 47.041 12.4023 45.3477 12.7422 43.9531L15.0098 34.2324H21.4434L23.6406 43.9531C24.0508 45.6641 24.4434 47.5215 24.8184 49.5254C25.1934 51.5293 25.4395 52.9941 25.5566 53.9199C25.7324 52.502 26.1484 50.2461 26.8047 47.1523L29.6523 34.2324H36.3496L30.0215 59.9316Z" fill="#A0A0A0"/>
<path d="M48.9883 39.6641C51.543 39.6641 53.5176 40.3027 54.9121 41.5801C56.3184 42.8574 57.0215 44.6211 57.0215 46.8711V59.9316H52.2578L50.9395 57.2949H50.7988C49.8496 58.4551 48.9004 59.2461 47.9512 59.668C47.002 60.0781 45.7656 60.2832 44.2422 60.2832C42.3672 60.2832 40.8906 59.7207 39.8125 58.5957C38.7344 57.459 38.1953 55.8652 38.1953 53.8145C38.1953 51.752 38.916 50.1934 40.3574 49.1387C41.8105 48.084 43.9668 47.4922 46.8262 47.3633L50.1484 47.2578V46.9766C50.1484 45.3359 49.3398 44.5156 47.7227 44.5156C46.2695 44.5156 44.4238 45.0078 42.1855 45.9922L40.1992 41.457C42.5195 40.2617 45.4492 39.6641 48.9883 39.6641ZM45.209 53.6035C45.209 54.8223 45.8594 55.4316 47.1602 55.4316C48.0039 55.4316 48.7188 55.168 49.3047 54.6406C49.8906 54.1133 50.1836 53.4277 50.1836 52.584V51.0371L48.6016 51.1074C46.3398 51.1895 45.209 52.0215 45.209 53.6035Z" fill="#A0A0A0"/>
<path d="M70.1875 53.8145H70.3105C70.3105 53.2168 70.416 52.5547 70.627 51.8281L74.1602 40.0156H81.3145L73.7207 59.9316H66.918L59.3242 40.0156H66.4961L69.8711 51.793L69.959 52.1973C70.1113 52.9004 70.1875 53.4395 70.1875 53.8145Z" fill="#A0A0A0"/>
<path d="M93.3203 60.2832C90.0156 60.2832 87.4375 59.4043 85.5859 57.6465C83.7578 55.8652 82.8438 53.3223 82.8438 50.0176C82.8438 46.7012 83.6934 44.1582 85.3926 42.3887C87.0918 40.5723 89.4766 39.6641 92.5469 39.6641C95.6172 39.6641 97.9727 40.4492 99.6133 42.0195C101.254 43.5898 102.074 45.8398 102.074 48.7695V51.8281H89.7871C89.834 52.9414 90.2383 53.8145 91 54.4473C91.7734 55.0801 92.7988 55.3965 94.0762 55.3965C95.3652 55.3965 96.502 55.2852 97.4863 55.0625C98.4707 54.8398 99.5664 54.4473 100.773 53.8848V58.8242C99.6484 59.3984 98.5234 59.7852 97.3984 59.9844C96.2734 60.1836 94.9141 60.2832 93.3203 60.2832ZM95.834 47.5039C95.8105 46.543 95.5352 45.7754 95.0078 45.2012C94.4922 44.627 93.8008 44.3398 92.9336 44.3398C92.0781 44.3398 91.3867 44.6035 90.8594 45.1309C90.332 45.6582 90.0215 46.4492 89.9277 47.5039H95.834Z" fill="#A0A0A0"/>
</svg>