<svg width="101" height="69" viewBox="0 0 101 69" fill="none" xmlns="http://www.w3.org/2000/svg">
<path d="M12.9206 0C11.2886 0 9.78458 1.36 8.40858 4.08C7.25658 6.288 5.84858 10.592 4.18458 16.992C2.48858 23.52 1.64058 27.92 1.64058 30.192C1.64058 31.12 2.18458 31.584 3.27258 31.584C4.36058 31.584 4.96858 31.28 5.09658 30.672C6.12058 23.408 6.90458 19.52 7.44858 19.008C7.57658 18.88 7.99258 18.816 8.69658 18.816C9.24058 18.816 10.6646 18.944 12.9686 19.2C15.1446 19.456 16.4246 19.696 16.8086 19.92C17.0646 20.08 17.5766 22.192 18.3446 26.256L19.0646 29.952C19.1926 30.56 19.4486 31.008 19.8326 31.296C20.2486 31.552 20.7126 31.68 21.2246 31.68C22.0566 31.68 22.5686 31.488 22.7606 31.104C22.9526 30.688 23.0166 30.304 22.9526 29.952C21.0326 18.848 19.0646 10.672 17.0486 5.424C16.2166 3.312 15.5126 1.856 14.9366 1.056C14.4246 0.352 13.7526 0 12.9206 0ZM12.7286 5.328C13.2726 5.328 13.9766 6.88 14.8406 9.984C15.7046 13.056 16.1366 14.816 16.1366 15.264C16.1366 15.648 16.1046 15.904 16.0406 16.032C15.9766 16.096 15.7366 16.128 15.3206 16.128C14.4246 16.128 13.1766 16.032 11.5766 15.84C9.81658 15.648 8.80858 15.424 8.55258 15.168C8.48858 15.104 8.45658 14.992 8.45658 14.832C8.45658 14.128 9.04858 12.384 10.2326 9.6C11.4486 6.752 12.2806 5.328 12.7286 5.328Z" fill="#A0A0A0"/>
<path d="M43.7501 8.352C43.3021 8.352 42.8701 8.496 42.4541 8.784C42.0701 9.04 41.8141 9.328 41.6861 9.648C41.6221 9.744 41.4461 10.208 41.1581 11.04L40.7741 12.288C39.5261 15.776 37.2861 17.52 34.0541 17.52C32.9341 17.52 31.9261 16.88 31.0301 15.6C30.1341 14.288 29.6701 12.832 29.6381 11.232C29.6061 10.848 29.4141 10.544 29.0621 10.32C28.7101 10.096 28.2781 9.984 27.7661 9.984C27.3181 9.984 26.9181 10.192 26.5661 10.608C26.2141 10.992 26.0381 11.424 26.0381 11.904V21.36L25.8941 30.24C25.8941 31.168 26.3261 31.632 27.1901 31.632C28.6621 31.632 29.4141 30.96 29.4461 29.616C29.5101 28.272 29.5421 24.912 29.5421 19.536C30.5341 20.528 31.9581 21.024 33.8141 21.024C35.6381 21.024 37.0941 20.736 38.1821 20.16C39.3021 19.584 40.4541 18.576 41.6381 17.136C41.6381 19.6 41.6541 21.392 41.6861 22.512C41.7501 24.688 41.7821 27.2 41.7821 30.048C41.7821 31.104 42.1821 31.632 42.9821 31.632C43.8141 31.632 44.3901 31.424 44.7101 31.008C45.0941 30.56 45.2861 30.096 45.2861 29.616C45.2861 22.032 45.2381 15.392 45.1421 9.696C45.1421 8.8 44.6781 8.352 43.7501 8.352Z" fill="#A0A0A0"/>
<path d="M57.5966 20.88C58.3006 20.88 58.8286 20.88 59.1806 20.88C59.5326 20.848 59.7886 20.832 59.9486 20.832C60.3326 20.768 60.6846 20.56 61.0046 20.208C61.3246 19.856 61.4846 19.488 61.4846 19.104C61.4846 18.336 60.9886 17.888 59.9966 17.76C55.9326 17.76 53.4846 17.744 52.6526 17.712C52.6206 17.488 52.6046 15.872 52.6046 12.864C53.8206 12.96 55.0046 13.008 56.1566 13.008C59.3246 13.008 61.3246 12.784 62.1566 12.336C62.5406 12.08 62.7326 11.648 62.7326 11.04C62.7326 10.24 62.2206 9.76 61.1966 9.6H61.1486L52.7486 9.456H51.4046C49.9646 9.488 49.2446 10.096 49.2446 11.28C49.2446 13.328 49.2926 15.6 49.3886 18.096C49.0366 18.448 48.8606 18.832 48.8606 19.248C48.8606 19.728 49.0686 20.08 49.4846 20.304V28.272C49.4846 29.296 49.5806 30.112 49.7726 30.72C49.9646 31.328 50.4606 31.632 51.2606 31.632L60.6686 31.536C61.9166 31.536 62.5406 30.864 62.5406 29.52C62.5406 28.816 62.0766 28.416 61.1486 28.32L52.8446 28.464C52.8766 28.432 52.8926 27.984 52.8926 27.12L52.7966 20.832L57.5966 20.88Z" fill="#A0A0A0"/>
<path d="M77.127 21.504C77.607 21.504 77.991 21.344 78.279 21.024C78.567 20.704 78.711 20.32 78.711 19.872C78.711 19.424 78.567 19.04 78.279 18.72C78.0229 18.4 77.735 18.24 77.415 18.24H71.175V13.056C72.967 13.152 74.423 13.2 75.543 13.2C77.175 13.2 78.151 13.136 78.471 13.008C78.791 13.008 79.175 12.912 79.623 12.72C80.135 12.592 80.391 12.128 80.391 11.328C80.391 10.304 79.463 9.792 77.607 9.792C73.895 9.792 71.511 9.744 70.455 9.648C69.463 9.552 68.743 9.504 68.295 9.504C67.9109 9.504 67.527 9.744 67.143 10.224C66.8549 10.608 66.711 10.928 66.711 11.184C66.711 12.304 67.127 12.912 67.959 13.008C67.991 13.552 68.007 15.344 68.007 18.384V25.968C68.007 28.208 68.0389 29.52 68.103 29.904C68.263 31.12 68.839 31.728 69.831 31.728C70.823 31.728 71.319 30.976 71.319 29.472C71.223 27.104 71.175 24.448 71.175 21.504H77.127Z" fill="#A0A0A0"/>
<path d="M10.5686 37.528C9.06458 37.528 7.32058 37.432 5.33658 37.24C4.05658 37.112 3.14458 37.048 2.60058 37.048C2.15258 37.048 1.84858 37.064 1.68858 37.096C1.46458 37.128 1.19258 37.384 0.872578 37.864C0.552578 38.312 0.392578 38.728 0.392578 39.112C0.392578 40.584 0.984578 41.256 2.16858 41.128C2.23258 42.664 2.26458 47.08 2.26458 54.376C2.32858 62.12 2.39258 66.184 2.45658 66.568C2.64858 68.04 3.28858 68.776 4.37658 68.776C5.49658 68.776 6.05658 67.96 6.05658 66.328L5.86458 53.752H15.2246C16.4726 53.752 17.0966 53.016 17.0966 51.544C17.0966 51.16 16.9366 50.808 16.6166 50.488C16.3286 50.168 16.0086 50.008 15.6566 50.008H5.86458V41.176C9.16058 41.336 11.4966 41.416 12.8726 41.416C14.7286 41.416 16.1366 41.336 17.0966 41.176C17.4806 41.176 17.9766 41.08 18.5846 40.888C19.1606 40.728 19.4486 40.2 19.4486 39.304C19.4486 38.056 18.2646 37.432 15.8966 37.432L10.5686 37.528Z" fill="#A0A0A0"/>
<path d="M23.7686 67.336C23.9286 65.864 24.4726 63.432 25.4006 60.04C27.1286 60.488 29.3846 60.712 32.1686 60.712L33.8486 67.288C34.0726 68.184 34.7126 68.632 35.7686 68.632C36.1846 68.632 36.5366 68.504 36.8246 68.248C37.1126 67.992 37.2566 67.672 37.2566 67.288C36.3926 63.544 35.6566 60.6 35.0486 58.456C34.4086 56.184 33.5606 53.896 32.5046 51.592C31.4486 49.32 30.7606 47.928 30.4406 47.416C30.0566 46.808 29.6086 46.504 29.0966 46.504C28.1046 46.504 27.1126 47.384 26.1206 49.144C25.0326 51.032 24.1046 53.24 23.3366 55.768C21.4806 61.528 20.5526 65.368 20.5526 67.288C20.5526 68.12 21.0486 68.536 22.0406 68.536C23.0646 68.536 23.6406 68.136 23.7686 67.336ZM28.9526 50.92C29.8806 52.872 30.6806 55.064 31.3526 57.496C29.4326 57.496 27.7686 57.304 26.3606 56.92C27.0326 54.68 27.8966 52.68 28.9526 50.92Z" fill="#A0A0A0"/>
<path d="M45.1492 66.808C45.0532 63.928 44.9892 62.024 44.9572 61.096C46.2692 61.992 47.7572 63.16 49.4212 64.6C51.0532 66.04 52.0772 67.032 52.4932 67.576C53.0692 68.28 53.5972 68.632 54.0772 68.632C54.2052 68.632 54.4132 68.584 54.7012 68.488C55.4692 68.232 55.8532 67.752 55.8532 67.048C55.8532 66.056 55.0692 64.792 53.5012 63.256C51.8692 61.72 50.0772 60.328 48.1252 59.08C48.3812 59.048 49.1652 58.664 50.4772 57.928C51.7892 57.192 52.7652 56.6 53.4052 56.152C54.1412 55.608 54.7972 54.904 55.3732 54.04C55.9812 53.176 56.2852 52.408 56.2852 51.736C56.2852 50.264 55.5012 49.032 53.9332 48.04C52.3652 47.016 50.5572 46.504 48.5092 46.504C46.4292 46.504 44.7812 46.792 43.5652 47.368C42.3492 47.944 41.7412 48.744 41.7412 49.768C41.7412 60.392 41.8052 66.36 41.9332 67.672C41.9332 68.312 42.2852 68.632 42.9892 68.632C43.5332 68.632 44.0292 68.456 44.4772 68.104C44.9252 67.752 45.1492 67.336 45.1492 66.856V66.808ZM44.9572 56.824C44.9572 53.432 44.9732 51.224 45.0052 50.2C46.1572 49.912 47.3412 49.768 48.5572 49.768C49.7092 49.768 50.7332 50.008 51.6292 50.488C52.5572 50.936 53.0212 51.56 53.0212 52.36C52.9252 53.256 51.8212 54.232 49.7092 55.288C47.5652 56.312 45.9812 56.824 44.9572 56.824Z" fill="#A0A0A0"/>
<path d="M78.672 45.352C78.224 45.352 77.792 45.496 77.376 45.784C76.992 46.04 76.736 46.328 76.608 46.648C76.544 46.744 76.368 47.208 76.08 48.04L75.696 49.288C74.448 52.776 72.208 54.52 68.976 54.52C67.8559 54.52 66.848 53.88 65.952 52.6C65.056 51.288 64.5919 49.832 64.56 48.232C64.528 47.848 64.336 47.544 63.984 47.32C63.632 47.096 63.2 46.984 62.688 46.984C62.24 46.984 61.84 47.192 61.488 47.608C61.136 47.992 60.96 48.424 60.96 48.904V58.36L60.816 67.24C60.816 68.168 61.248 68.632 62.112 68.632C63.584 68.632 64.336 67.96 64.368 66.616C64.432 65.272 64.464 61.912 64.464 56.536C65.4559 57.528 66.88 58.024 68.736 58.024C70.56 58.024 72.016 57.736 73.104 57.16C74.224 56.584 75.376 55.576 76.56 54.136C76.56 56.6 76.576 58.392 76.608 59.512C76.672 61.688 76.704 64.2 76.704 67.048C76.704 68.104 77.104 68.632 77.904 68.632C78.736 68.632 79.312 68.424 79.632 68.008C80.016 67.56 80.208 67.096 80.208 66.616C80.208 59.032 80.16 52.392 80.064 46.696C80.064 45.8 79.6 45.352 78.672 45.352Z" fill="#A0A0A0"/>
<path d="M87.1905 67.336C87.3504 65.864 87.8945 63.432 88.8225 60.04C90.5505 60.488 92.8065 60.712 95.5905 60.712L97.2705 67.288C97.4945 68.184 98.1345 68.632 99.1905 68.632C99.6065 68.632 99.9585 68.504 100.246 68.248C100.534 67.992 100.678 67.672 100.678 67.288C99.8145 63.544 99.0785 60.6 98.4705 58.456C97.8305 56.184 96.9825 53.896 95.9265 51.592C94.8705 49.32 94.1825 47.928 93.8625 47.416C93.4785 46.808 93.0305 46.504 92.5185 46.504C91.5265 46.504 90.5345 47.384 89.5425 49.144C88.4545 51.032 87.5265 53.24 86.7585 55.768C84.9025 61.528 83.9745 65.368 83.9745 67.288C83.9745 68.12 84.4705 68.536 85.4625 68.536C86.4865 68.536 87.0625 68.136 87.1905 67.336ZM92.3745 50.92C93.3025 52.872 94.1025 55.064 94.7745 57.496C92.8545 57.496 91.1905 57.304 89.7825 56.92C90.4545 54.68 91.3185 52.68 92.3745 50.92Z" fill="#A0A0A0"/>
</svg>