<svg width="79" height="59" viewBox="0 0 79 59" fill="none" xmlns="http://www.w3.org/2000/svg">
<path d="M13.6641 1.08C14.2641 1.08 14.7561 1.2 15.1401 1.44C15.5481 1.656 15.8841 1.956 16.1481 2.34C16.4121 2.7 16.6281 3.12 16.7961 3.6C16.9641 4.08 17.1081 4.572 17.2281 5.076C18.1881 8.964 18.9801 12.168 19.6041 14.688C20.2281 17.208 20.7201 19.248 21.0801 20.808C21.4401 22.344 21.6921 23.484 21.8361 24.228C21.9801 24.972 22.0521 25.488 22.0521 25.776C22.0521 26.112 21.9681 26.34 21.8001 26.46C21.6561 26.58 21.4161 26.64 21.0801 26.64H19.2441C18.2121 26.64 17.3841 26.52 16.7601 26.28C16.1601 26.016 15.6921 25.644 15.3561 25.164C15.0441 24.684 14.8161 24.108 14.6721 23.436C14.5281 22.74 14.4081 21.96 14.3121 21.096H8.0481L6.8601 26.064C6.7401 26.448 6.4641 26.64 6.0321 26.64H4.1241C3.7401 26.64 3.3441 26.604 2.9361 26.532C2.5281 26.436 2.1561 26.292 1.8201 26.1C1.5081 25.908 1.2441 25.668 1.0281 25.38C0.812102 25.068 0.704102 24.696 0.704102 24.264C0.704102 23.736 0.872102 22.872 1.2081 21.672C1.5441 20.472 1.9641 19.116 2.4681 17.604C2.9961 16.068 3.5721 14.472 4.1961 12.816C4.8441 11.136 5.4681 9.552 6.0681 8.064C6.6681 6.576 7.2081 5.268 7.6881 4.14C8.1921 3.012 8.5761 2.22 8.8401 1.764C9.0321 1.428 9.2001 1.236 9.3441 1.188C9.5121 1.116 9.8121 1.08 10.2441 1.08H13.6641ZM9.3441 15.876H13.4841L11.9721 6.372L9.3441 15.876Z" fill="#A0A0A0"/>
<path d="M30.9534 9.9C30.9534 10.404 30.9054 11.112 30.8094 12.024C30.7374 12.936 30.6534 13.884 30.5574 14.868C30.4854 15.852 30.4014 16.776 30.3054 17.64C30.2334 18.504 30.1974 19.128 30.1974 19.512C30.1974 20.352 30.4014 21.012 30.8094 21.492C31.2414 21.948 31.8294 22.176 32.5734 22.176C33.2214 22.176 33.7614 21.924 34.1934 21.42C34.6494 20.892 35.0094 20.22 35.2734 19.404C35.5614 18.564 35.7894 17.616 35.9574 16.56C36.1254 15.504 36.2454 14.436 36.3174 13.356C36.4134 12.276 36.4854 11.232 36.5334 10.224C36.6054 9.192 36.6774 8.304 36.7494 7.56C36.7734 7.368 36.8454 7.2 36.9654 7.056C37.0854 6.912 37.2774 6.84 37.5414 6.84H38.8374C39.5814 6.84 40.1814 6.924 40.6374 7.092C41.1174 7.236 41.4894 7.452 41.7534 7.74C42.0414 8.028 42.2334 8.388 42.3294 8.82C42.4494 9.228 42.5094 9.708 42.5094 10.26C42.5094 10.62 42.4854 11.136 42.4374 11.808C42.4134 12.456 42.3534 13.368 42.2574 14.544C42.1614 15.696 42.0414 17.172 41.8974 18.972C41.7774 20.748 41.6214 22.956 41.4294 25.596C41.3814 26.1 41.3214 26.4 41.2494 26.496C41.2014 26.592 41.0094 26.64 40.6734 26.64H39.2694C38.5494 26.64 37.9494 26.556 37.4694 26.388C37.0134 26.22 36.6414 26.004 36.3534 25.74C36.0654 25.476 35.8614 25.164 35.7414 24.804C35.6214 24.444 35.5494 24.072 35.5254 23.688C35.1654 24.312 34.7574 24.84 34.3014 25.272C33.8694 25.704 33.4134 26.052 32.9334 26.316C32.4534 26.556 31.9614 26.724 31.4574 26.82C30.9534 26.94 30.4614 27 29.9814 27C29.0694 27 28.2534 26.856 27.5334 26.568C26.8134 26.256 26.2014 25.848 25.6974 25.344C25.2174 24.84 24.8454 24.24 24.5814 23.544C24.3174 22.848 24.1854 22.104 24.1854 21.312C24.1854 21 24.1974 20.496 24.2214 19.8C24.2694 19.08 24.3174 18.276 24.3654 17.388C24.4374 16.5 24.5094 15.564 24.5814 14.58C24.6534 13.572 24.7134 12.624 24.7614 11.736C24.8334 10.848 24.8934 10.068 24.9414 9.396C25.0134 8.724 25.0614 8.244 25.0854 7.956C25.1334 7.524 25.2294 7.236 25.3734 7.092C25.5174 6.924 25.7574 6.84 26.0934 6.84H27.2454C27.9894 6.84 28.6014 6.912 29.0814 7.056C29.5614 7.2 29.9334 7.404 30.1974 7.668C30.4854 7.932 30.6774 8.256 30.7734 8.64C30.8934 9 30.9534 9.42 30.9534 9.9Z" fill="#A0A0A0"/>
<path d="M53.4033 11.7C53.3313 12.612 53.2473 13.512 53.1513 14.4C53.0793 15.288 53.0073 16.128 52.9353 16.92C52.8633 17.712 52.8033 18.42 52.7553 19.044C52.7313 19.668 52.7193 20.148 52.7193 20.484C52.7193 21.108 52.7913 21.528 52.9353 21.744C53.0793 21.936 53.3193 22.032 53.6553 22.032C53.9193 22.032 54.1473 21.984 54.3393 21.888C54.5313 21.792 54.7113 21.684 54.8793 21.564C55.0473 21.444 55.1913 21.336 55.3113 21.24C55.4553 21.144 55.6113 21.096 55.7793 21.096C55.9473 21.096 56.1033 21.192 56.2473 21.384C56.3913 21.576 56.4633 22.02 56.4633 22.716C56.4633 24.036 56.1033 25.08 55.3833 25.848C54.6633 26.616 53.4273 27 51.6753 27C49.9473 27 48.6633 26.604 47.8233 25.812C47.0073 24.996 46.5993 23.76 46.5993 22.104C46.5993 21.744 46.6113 21.324 46.6353 20.844C46.6833 20.34 46.7433 19.692 46.8153 18.9C46.8873 18.108 46.9713 17.136 47.0673 15.984C47.1873 14.832 47.3073 13.404 47.4273 11.7H45.5193C45.3273 11.7 45.2073 11.664 45.1593 11.592C45.1353 11.496 45.1233 11.364 45.1233 11.196L45.2313 9.36C45.2553 9.048 45.2913 8.748 45.3393 8.46C45.4113 8.148 45.5313 7.872 45.6993 7.632C45.8913 7.392 46.1553 7.2 46.4913 7.056C46.8273 6.912 47.2713 6.84 47.8233 6.84C47.9913 6.408 48.1833 5.892 48.3993 5.292C48.6153 4.692 48.8313 4.116 49.0473 3.564C49.2633 2.988 49.4673 2.508 49.6593 2.124C49.8753 1.74 50.0673 1.548 50.2353 1.548H51.2793C52.2873 1.548 52.9833 1.86 53.3673 2.484C53.7513 3.108 53.9433 3.852 53.9433 4.716C53.9433 5.196 53.9073 5.904 53.8353 6.84H57.6153C57.9993 6.84 58.1913 7.008 58.1913 7.344L58.0473 9.288C57.9993 10.008 57.7953 10.596 57.4353 11.052C57.0993 11.484 56.3913 11.7 55.3113 11.7H53.4033Z" fill="#A0A0A0"/>
<path d="M71.9942 22.176C72.0662 21.384 72.1382 20.556 72.2102 19.692C72.3062 18.828 72.3782 18 72.4262 17.208C72.4982 16.416 72.5582 15.708 72.6062 15.084C72.6542 14.46 72.6782 14.004 72.6782 13.716C72.6782 13.092 72.5222 12.54 72.2102 12.06C71.9222 11.556 71.3462 11.304 70.4822 11.304C69.3302 11.304 68.3942 11.844 67.6742 12.924C66.9782 14.004 66.5702 15.444 66.4502 17.244C66.4022 17.748 66.3422 18.456 66.2702 19.368C66.1982 20.256 66.1262 21.168 66.0542 22.104C65.9822 23.016 65.9102 23.844 65.8382 24.588C65.7902 25.308 65.7662 25.752 65.7662 25.92C65.7662 26.208 65.7062 26.4 65.5862 26.496C65.4902 26.592 65.2862 26.64 64.9742 26.64H63.6782C62.9342 26.64 62.3222 26.568 61.8422 26.424C61.3862 26.256 61.0142 26.028 60.7262 25.74C60.4622 25.452 60.2702 25.104 60.1502 24.696C60.0542 24.264 60.0062 23.772 60.0062 23.22C60.0062 22.692 60.0422 21.96 60.1142 21.024C60.2102 20.064 60.3302 18.756 60.4742 17.1C60.6182 15.42 60.7862 13.284 60.9782 10.692C61.1702 8.1 61.3742 4.884 61.5902 1.044C61.6142 0.515999 61.6742 0.203999 61.7702 0.107999C61.8422 0.0359995 62.0342 0 62.3462 0H63.7502C64.4702 0 65.0702 0.0839996 65.5502 0.251999C66.0302 0.42 66.4142 0.648 66.7022 0.935999C66.9902 1.224 67.1942 1.56 67.3142 1.944C67.4342 2.304 67.4942 2.688 67.4942 3.096C67.4942 3.528 67.4462 4.332 67.3502 5.508C67.2782 6.684 67.1822 8.064 67.0622 9.648C67.7822 8.448 68.5742 7.62 69.4382 7.164C70.3262 6.708 71.4422 6.48 72.7862 6.48C73.7942 6.48 74.6702 6.588 75.4142 6.804C76.1582 7.02 76.7702 7.392 77.2502 7.92C77.7542 8.424 78.1262 9.096 78.3662 9.936C78.6062 10.752 78.7262 11.772 78.7262 12.996C78.7262 13.38 78.6902 14.04 78.6182 14.976C78.5462 15.912 78.4502 16.98 78.3302 18.18C78.2342 19.38 78.1262 20.64 78.0062 21.96C77.9102 23.256 77.8262 24.444 77.7542 25.524C77.7302 25.788 77.7062 25.992 77.6822 26.136C77.6582 26.28 77.6102 26.388 77.5382 26.46C77.4902 26.532 77.4062 26.58 77.2862 26.604C77.1662 26.628 76.9982 26.64 76.7822 26.64H75.6302C74.8622 26.64 74.2382 26.568 73.7582 26.424C73.2782 26.28 72.9062 26.076 72.6422 25.812C72.3782 25.548 72.1862 25.224 72.0662 24.84C71.9702 24.432 71.9222 23.976 71.9222 23.472C71.9222 23.232 71.9222 23.004 71.9222 22.788C71.9462 22.572 71.9702 22.368 71.9942 22.176Z" fill="#A0A0A0"/>
<path d="M4.8081 52.232C5.8161 52.232 6.5361 52.484 6.9681 52.988C7.4001 53.468 7.6161 54.152 7.6161 55.04C7.6161 55.4 7.5681 55.82 7.4721 56.3C7.3761 56.756 7.1961 57.188 6.9321 57.596C6.6921 57.98 6.3441 58.316 5.8881 58.604C5.4321 58.868 4.8321 59 4.0881 59C2.9841 59 2.2401 58.724 1.8561 58.172C1.4721 57.596 1.2801 56.888 1.2801 56.048C1.2801 55.568 1.3401 55.1 1.4601 54.644C1.5801 54.188 1.7721 53.78 2.0361 53.42C2.3001 53.06 2.6601 52.772 3.1161 52.556C3.5721 52.34 4.1361 52.232 4.8081 52.232Z" fill="#A0A0A0"/>
<path d="M30.95 46.904C30.878 47.624 30.77 48.428 30.626 49.316C30.482 50.18 30.254 51.068 29.942 51.98C29.654 52.868 29.258 53.732 28.754 54.572C28.25 55.412 27.602 56.168 26.81 56.84C26.018 57.488 25.058 58.016 23.93 58.424C22.826 58.808 21.506 59 19.97 59C18.41 59 17.078 58.784 15.974 58.352C14.87 57.896 13.97 57.284 13.274 56.516C12.578 55.724 12.074 54.812 11.762 53.78C11.45 52.748 11.294 51.644 11.294 50.468C11.294 49.94 11.318 49.232 11.366 48.344C11.414 47.432 11.474 46.448 11.546 45.392C11.642 44.336 11.738 43.244 11.834 42.116C11.93 40.964 12.014 39.872 12.086 38.84C12.182 37.808 12.266 36.884 12.338 36.068C12.41 35.228 12.458 34.592 12.482 34.16C12.506 33.704 12.566 33.416 12.662 33.296C12.758 33.152 12.902 33.08 13.094 33.08H15.074C16.538 33.08 17.522 33.392 18.026 34.016C18.53 34.64 18.782 35.564 18.782 36.788C18.782 36.86 18.758 37.184 18.71 37.76C18.686 38.312 18.638 38.996 18.566 39.812C18.518 40.628 18.458 41.516 18.386 42.476C18.338 43.436 18.278 44.348 18.206 45.212C18.158 46.076 18.11 46.832 18.062 47.48C18.038 48.128 18.026 48.56 18.026 48.776C18.026 49.184 18.038 49.652 18.062 50.18C18.11 50.708 18.206 51.212 18.35 51.692C18.518 52.172 18.77 52.58 19.106 52.916C19.466 53.228 19.97 53.384 20.618 53.384C21.434 53.384 22.094 53.108 22.598 52.556C23.126 52.004 23.522 51.344 23.786 50.576C24.074 49.808 24.266 49.028 24.362 48.236C24.482 47.444 24.566 46.796 24.614 46.292C24.71 45.068 24.806 43.808 24.902 42.512C25.022 41.216 25.118 40.004 25.19 38.876C25.286 37.748 25.358 36.764 25.406 35.924C25.454 35.084 25.478 34.508 25.478 34.196C25.478 33.716 25.514 33.416 25.586 33.296C25.658 33.152 25.814 33.08 26.054 33.08H28.034C28.85 33.08 29.486 33.152 29.942 33.296C30.422 33.44 30.782 33.632 31.022 33.872C31.262 34.112 31.406 34.388 31.454 34.7C31.526 35.012 31.562 35.336 31.562 35.672C31.562 35.984 31.538 36.572 31.49 37.436C31.466 38.3 31.43 39.284 31.382 40.388C31.334 41.492 31.274 42.632 31.202 43.808C31.13 44.984 31.046 46.016 30.95 46.904Z" fill="#A0A0A0"/>
<path d="M54.5005 56.3C54.5005 56.492 54.3805 56.744 54.1405 57.056C53.9245 57.344 53.6125 57.632 53.2045 57.92C52.8205 58.208 52.3645 58.46 51.8365 58.676C51.3325 58.892 50.7925 59 50.2165 59C49.3285 59 48.5485 58.724 47.8765 58.172C47.2045 57.596 46.5925 56.816 46.0405 55.832C45.5125 54.848 45.0205 53.684 44.5645 52.34C44.1085 50.972 43.6405 49.496 43.1605 47.912L41.7925 48.812L41.1085 58.1C41.0845 58.292 41.0365 58.436 40.9645 58.532C40.8925 58.604 40.7485 58.64 40.5325 58.64H38.5525C37.1845 58.64 36.2125 58.376 35.6365 57.848C35.0845 57.296 34.8085 56.492 34.8085 55.436C34.8085 55.1 34.8205 54.596 34.8445 53.924C34.8925 53.228 34.9525 52.424 35.0245 51.512C35.0965 50.576 35.1685 49.556 35.2405 48.452C35.3365 47.348 35.4325 46.22 35.5285 45.068C35.6965 42.764 35.8285 40.94 35.9245 39.596C36.0445 38.252 36.1285 37.196 36.1765 36.428C36.2245 35.636 36.2605 35.06 36.2845 34.7C36.3085 34.316 36.3205 33.956 36.3205 33.62C36.3205 33.26 36.5125 33.08 36.8965 33.08H38.8765C39.6445 33.08 40.2565 33.164 40.7125 33.332C41.1925 33.476 41.5645 33.692 41.8285 33.98C42.0925 34.268 42.2725 34.628 42.3685 35.06C42.4645 35.468 42.5125 35.948 42.5125 36.5C42.5125 37.052 42.4765 37.952 42.4045 39.2C42.3565 40.424 42.2725 41.804 42.1525 43.34C42.9685 42.332 43.9405 41.084 45.0685 39.596C46.2205 38.108 47.6125 36.272 49.2445 34.088C49.3165 33.992 49.4125 33.872 49.5325 33.728C49.6765 33.56 49.8205 33.404 49.9645 33.26C50.1325 33.116 50.3005 32.996 50.4685 32.9C50.6605 32.78 50.8405 32.72 51.0085 32.72C51.3205 32.72 51.6805 32.888 52.0885 33.224C52.4965 33.536 52.8805 33.932 53.2405 34.412C53.6005 34.868 53.9005 35.348 54.1405 35.852C54.4045 36.332 54.5365 36.74 54.5365 37.076C54.5365 37.772 53.9125 38.816 52.6645 40.208C51.4165 41.576 49.6285 43.16 47.3005 44.96C47.7085 45.656 48.1765 46.412 48.7045 47.228C49.2325 48.02 49.7605 48.836 50.2885 49.676C50.8165 50.492 51.3325 51.296 51.8365 52.088C52.3405 52.856 52.7845 53.552 53.1685 54.176C53.5765 54.776 53.9005 55.268 54.1405 55.652C54.3805 56.036 54.5005 56.252 54.5005 56.3Z" fill="#A0A0A0"/>
</svg>